<svg width="94" height="94" viewBox="0 0 94 94" fill="none" xmlns="http://www.w3.org/2000/svg">
<path d="M31.1634 93.4878C39.7643 93.4878 46.7447 86.5074 46.7447 77.9065V62.3252H31.1634C22.5625 62.3252 15.582 69.3056 15.582 77.9065C15.582 86.5074 22.5625 93.4878 31.1634 93.4878Z" fill="#0ACF83"/>
<path d="M15.582 46.7434C15.582 38.1425 22.5625 31.1621 31.1634 31.1621H46.7447V62.3247H31.1634C22.5625 62.3247 15.582 55.3443 15.582 46.7434Z" fill="#A259FF"/>
<path d="M15.582 15.5813C15.582 6.98043 22.5625 0 31.1634 0H46.7447V31.1626H31.1634C22.5625 31.1626 15.582 24.1822 15.582 15.5813Z" fill="#F24E1E"/>
<path d="M46.7422 0H62.3235C70.9244 0 77.9049 6.98043 77.9049 15.5813C77.9049 24.1822 70.9244 31.1626 62.3235 31.1626H46.7422V0Z" fill="#FF7262"/>
<path d="M77.9049 46.7434C77.9049 55.3443 70.9244 62.3247 62.3235 62.3247C53.7226 62.3247 46.7422 55.3443 46.7422 46.7434C46.7422 38.1425 53.7226 31.1621 62.3235 31.1621C70.9244 31.1621 77.9049 38.1425 77.9049 46.7434Z" fill="#1ABCFE"/>
</svg>
