<svg width="94" height="94" viewBox="0 0 94 94" fill="none" xmlns="http://www.w3.org/2000/svg">
<path d="M16.5552 1.18945H76.9328C86.0868 1.18945 93.4879 8.59058 93.4879 17.7446V75.785C93.4879 84.9391 86.0868 92.3402 76.9328 92.3402H16.5552C7.40113 92.3402 0 84.9391 0 75.785V17.7446C0 8.59058 7.40113 1.18945 16.5552 1.18945Z" fill="#001E36"/>
<path d="M21.0352 65.1119V25.0289C21.0352 24.7562 21.152 24.6004 21.4247 24.6004C22.0869 24.6004 22.7101 24.6004 23.6061 24.5615C24.541 24.5225 25.5148 24.5225 26.5665 24.4836C27.6183 24.4446 28.7479 24.4446 29.9555 24.4057C31.163 24.3667 32.3316 24.3667 33.5002 24.3667C36.6944 24.3667 39.3432 24.7562 41.5246 25.5743C43.4723 26.2365 45.2641 27.3272 46.7443 28.7684C47.9908 30.0149 48.9647 31.5341 49.5879 33.2091C50.1722 34.8451 50.4839 36.5201 50.4839 38.273C50.4839 41.623 49.7048 44.3887 48.1467 46.5701C46.5885 48.7515 44.4071 50.3875 41.8752 51.3224C39.2264 52.2962 36.3049 52.6468 33.1107 52.6468C32.1758 52.6468 31.5525 52.6468 31.163 52.6078C30.7735 52.5689 30.2281 52.5689 29.488 52.5689V65.0729C29.527 65.3456 29.3322 65.5793 29.0595 65.6183C29.0206 65.6183 28.9816 65.6183 28.9037 65.6183H21.5026C21.191 65.6183 21.0352 65.4624 21.0352 65.1119ZM29.527 32.1184V45.2067C30.0723 45.2457 30.5787 45.2846 31.0462 45.2846H33.1107C34.6299 45.2846 36.149 45.0509 37.5903 44.5835C38.8368 44.2329 39.9275 43.4928 40.7845 42.5189C41.6025 41.5451 41.992 40.2207 41.992 38.5068C42.031 37.2992 41.7194 36.0916 41.0961 35.0399C40.4339 34.0271 39.499 33.2481 38.3694 32.8196C36.9281 32.2353 35.37 32.0015 33.7729 32.0405C32.7601 32.0405 31.8642 32.0405 31.1241 32.0795C30.345 32.0405 29.7997 32.0795 29.527 32.1184Z" fill="#31A8FF"/>
<path d="M74.7884 42.8313C73.6198 42.208 72.3732 41.7795 71.0488 41.5069C69.6076 41.1952 68.1663 41.0005 66.6861 41.0005C65.907 40.9615 65.089 41.0784 64.3489 41.2731C63.8425 41.39 63.414 41.6627 63.1413 42.0522C62.9466 42.3638 62.8297 42.7534 62.8297 43.104C62.8297 43.4545 62.9855 43.8051 63.2192 44.1167C63.5698 44.5452 64.0372 44.8958 64.5436 45.1685C65.4396 45.6359 66.3744 46.0644 67.3093 46.4539C69.4128 47.1551 71.4384 48.1289 73.3081 49.2975C74.5936 50.1155 75.6453 51.2062 76.3854 52.5307C77.0087 53.7772 77.3203 55.1405 77.2814 56.5428C77.3203 58.3737 76.775 60.2045 75.7622 61.7236C74.6715 63.2818 73.1523 64.4893 71.3994 65.1905C69.4907 66.0085 67.1535 66.437 64.3489 66.437C62.557 66.437 60.8041 66.2812 59.0512 65.9306C57.6879 65.6969 56.3245 65.2684 55.078 64.6841C54.8053 64.5283 54.6105 64.2556 54.6495 63.944V57.1661C54.6495 57.0492 54.6884 56.8934 54.8053 56.8155C54.9222 56.7376 55.039 56.7766 55.1559 56.8545C56.6751 57.7504 58.2722 58.3737 59.9861 58.7632C61.4663 59.1527 63.0245 59.3475 64.5826 59.3475C66.0628 59.3475 67.1146 59.1527 67.8157 58.8021C68.439 58.5295 68.8675 57.8673 68.8675 57.1661C68.8675 56.6207 68.5558 56.1144 67.9326 55.608C67.3093 55.1016 66.0239 54.5173 64.1151 53.7772C62.1285 53.076 60.2977 52.1411 58.5838 50.9725C57.3762 50.1155 56.3634 48.9859 55.6233 47.6615C55.0001 46.415 54.6884 45.0516 54.7274 43.6883C54.7274 42.0133 55.1948 40.4162 56.0518 38.9749C57.0256 37.4168 58.4669 36.1703 60.1419 35.3912C61.9727 34.4563 64.271 34.0278 67.0366 34.0278C68.6337 34.0278 70.2698 34.1447 71.8669 34.3784C73.0355 34.5342 74.1651 34.8459 75.2168 35.2743C75.3727 35.3133 75.5285 35.4691 75.6064 35.6249C75.6453 35.7807 75.6843 35.9365 75.6843 36.0924V42.4417C75.6843 42.5976 75.6064 42.7534 75.4895 42.8313C75.1389 42.9092 74.9442 42.9092 74.7884 42.8313Z" fill="#31A8FF"/>
</svg>
