<svg width="94" height="94" viewBox="0 0 94 94" fill="none" xmlns="http://www.w3.org/2000/svg">
<path d="M88.8155 27.6658C88.8148 26.0981 88.4795 24.7128 87.8015 23.5238C87.1355 22.3547 86.138 21.3748 84.8001 20.6C73.7563 14.2321 62.7018 7.88372 51.6616 1.50934C48.6852 -0.208981 45.7994 -0.146337 42.8451 1.59665C38.4493 4.18905 16.4413 16.7979 9.88319 20.5965C7.18237 22.16 5.86815 24.5528 5.8675 27.6629C5.86328 40.4691 5.8675 53.275 5.86328 66.0815C5.86393 67.6149 6.18494 68.9732 6.83312 70.1443C7.49948 71.3488 8.51087 72.3556 9.87961 73.1479C16.438 76.9465 38.449 89.5544 42.8438 92.1474C45.7994 93.8914 48.6852 93.9537 51.6626 92.2348C62.7031 85.86 73.7583 79.5119 84.8037 73.144C86.1724 72.3521 87.1838 71.3446 87.8502 70.141C88.4974 68.97 88.819 67.6116 88.8197 66.078C88.8197 66.078 88.8197 40.4723 88.8155 27.6658" fill="#5C8DBC"/>
<path d="M47.4752 46.748L6.83984 70.145C7.5062 71.3495 8.51759 72.3563 9.88634 73.1486C16.4448 76.9472 38.4558 89.5551 42.8506 92.1481C45.8062 93.8921 48.692 93.9544 51.6694 92.2354C62.7099 85.8607 73.7651 79.5126 84.8105 73.1447C86.1792 72.3527 87.1906 71.3452 87.857 70.1417L47.4752 46.748" fill="#1A4674"/>
<path d="M35.4336 53.6784C37.7981 57.8063 42.2433 60.5906 47.3424 60.5906C52.473 60.5906 56.9434 57.771 59.296 53.5989L47.4693 46.748L35.4336 53.6784" fill="#1A4674"/>
<path d="M88.8197 27.6664C88.8191 26.0986 88.4838 24.7133 87.8057 23.5244L47.4727 46.748L87.8544 70.1417C88.5016 68.9706 88.8233 67.6123 88.8239 66.0786C88.8239 66.0786 88.8239 40.4729 88.8197 27.6664" fill="#1B598E"/>
<path d="M86.594 48.4192H83.4384V51.5753H80.2822V48.4192H77.127V45.2639H80.2822V42.1084H83.4384V45.2639H86.594V48.4192ZM75.0796 48.4192H71.9244V51.5753H68.7688V48.4192H65.6133V45.2639H68.7688V42.1084H71.9244V45.2639H75.0796V48.4192Z" fill="white"/>
<path d="M59.2952 53.5992C56.9426 57.7714 52.4722 60.591 47.3416 60.591C42.2424 60.591 37.7973 57.8067 35.4328 53.6787C34.2449 51.6074 33.6211 49.2607 33.6236 46.873C33.6236 39.297 39.7656 33.1553 47.3416 33.1553C52.4079 33.1553 56.8297 35.9048 59.2059 39.9906L71.1962 33.0862C66.4304 24.8594 57.5327 19.3247 47.3416 19.3247C32.1266 19.3247 19.793 31.6587 19.793 46.873C19.793 51.8643 21.1208 56.5451 23.4416 60.5825C28.1953 68.8528 37.1183 74.4216 47.3416 74.4216C57.5837 74.4216 66.5206 68.8304 71.2676 60.5358L59.2952 53.5992Z" fill="white"/>
</svg>
