<svg width="94" height="94" viewBox="0 0 94 94" fill="none" xmlns="http://www.w3.org/2000/svg">
<path d="M46.9189 0C23.1858 0 24.6676 10.2921 24.6676 10.2921L24.694 20.955H47.342V24.1563H15.6985C15.6985 24.1563 0.511719 22.4339 0.511719 46.3804C0.511719 70.3276 13.7671 69.4783 13.7671 69.4783H21.6779V58.3659C21.6779 58.3659 21.2515 45.1105 34.7218 45.1105H57.1846C57.1846 45.1105 69.8049 45.3144 69.8049 32.9134V12.4091C69.8049 12.4091 71.7216 0 46.9189 0ZM34.4307 7.17059C34.9659 7.17011 35.496 7.27516 35.9905 7.47975C36.485 7.68434 36.9344 7.98443 37.3128 8.36287C37.6913 8.7413 37.9914 9.19065 38.1959 9.68519C38.4005 10.1797 38.5056 10.7098 38.5051 11.245C38.5056 11.7801 38.4005 12.3102 38.1959 12.8047C37.9914 13.2993 37.6913 13.7486 37.3128 14.127C36.9344 14.5055 36.485 14.8056 35.9905 15.0102C35.496 15.2147 34.9659 15.3198 34.4307 15.3193C33.8955 15.3198 33.3655 15.2147 32.871 15.0102C32.3764 14.8056 31.9271 14.5055 31.5486 14.127C31.1702 13.7486 30.8701 13.2993 30.6655 12.8047C30.4609 12.3102 30.3559 11.7801 30.3564 11.245C30.3559 10.7098 30.4609 10.1797 30.6655 9.68519C30.8701 9.19065 31.1702 8.7413 31.5486 8.36287C31.9271 7.98443 32.3764 7.68434 32.871 7.47975C33.3655 7.27516 33.8955 7.17011 34.4307 7.17059V7.17059Z" fill="url(#paint0_linear_4678_2281)"/>
<path d="M47.5887 93.0027C71.3218 93.0027 69.8399 82.7106 69.8399 82.7106L69.8136 72.0481H47.1651V68.8468H78.8087C78.8087 68.8468 93.9955 70.5691 93.9955 46.6219C93.9955 22.6749 80.7401 23.5242 80.7401 23.5242H72.8293V34.6363C72.8293 34.6363 73.2557 47.8918 59.7854 47.8918H37.3226C37.3226 47.8918 24.7023 47.6879 24.7023 60.0892V80.594C24.7023 80.594 22.7859 93.0027 47.5883 93.0027H47.5887ZM60.0768 85.8328C59.5416 85.8333 59.0116 85.7283 58.5171 85.5237C58.0225 85.3191 57.5732 85.019 57.1947 84.6405C56.8163 84.2621 56.5162 83.8128 56.3116 83.3182C56.107 82.8237 56.002 82.2936 56.0025 81.7585C56.0019 81.2232 56.1069 80.6932 56.3115 80.1986C56.5161 79.704 56.8162 79.2546 57.1946 78.8761C57.573 78.4977 58.0224 78.1975 58.517 77.9929C59.0115 77.7883 59.5416 77.6832 60.0768 77.6837C60.612 77.6832 61.142 77.7883 61.6366 77.9929C62.1311 78.1975 62.5805 78.4976 62.9589 78.876C63.3373 79.2544 63.6374 79.7038 63.842 80.1983C64.0466 80.6929 64.1517 81.2229 64.1512 81.7581C64.1517 82.2933 64.0466 82.8233 63.842 83.3179C63.6374 83.8124 63.3373 84.2617 62.9589 84.6402C62.5805 85.0186 62.1311 85.3187 61.6366 85.5233C61.142 85.7279 60.612 85.8329 60.0768 85.8325V85.8328Z" fill="url(#paint1_linear_4678_2281)"/>
<defs>
<linearGradient id="paint0_linear_4678_2281" x1="9.49587" y1="8.36494" x2="55.8256" y2="54.2325" gradientUnits="userSpaceOnUse">
<stop stop-color="#387EB8"/>
<stop offset="1" stop-color="#366994"/>
</linearGradient>
<linearGradient id="paint1_linear_4678_2281" x1="37.9289" y1="37.8192" x2="87.6818" y2="84.8522" gradientUnits="userSpaceOnUse">
<stop stop-color="#FFE052"/>
<stop offset="1" stop-color="#FFC331"/>
</linearGradient>
</defs>
</svg>
