<svg width="94" height="94" viewBox="0 0 94 94" fill="none" xmlns="http://www.w3.org/2000/svg">
<path d="M21.0289 0H72.7923C75.3111 0 77.7569 0.401706 80.1297 1.24164C83.5611 2.48327 86.664 4.6744 89.0003 7.52286C91.3731 10.3713 92.9427 13.8771 93.4903 17.529C93.7093 18.8802 93.7458 20.2314 93.7458 21.5826V72.088C93.7458 73.6948 93.6728 75.3381 93.3443 76.9084C92.6142 80.5238 90.8985 83.92 88.4162 86.6589C85.9704 89.3978 82.758 91.4429 79.2901 92.5385C77.1728 93.1958 74.9825 93.4879 72.7558 93.4879C71.7702 93.4879 20.8829 93.4879 20.1163 93.4514C16.3929 93.2688 12.7059 92.0637 9.60304 89.9821C6.57317 87.9371 4.09087 85.0886 2.48467 81.802C1.0975 78.99 0.403918 75.8494 0.403918 72.7088V20.7792C0.330909 17.6751 0.987989 14.6075 2.33865 11.8321C3.90835 8.54538 6.35415 5.6604 9.38402 3.61535C12.4869 1.49727 16.1373 0.255631 19.8608 0.0730375C20.2258 0 20.6274 0 21.0289 0V0Z" fill="url(#paint0_linear_4678_2276)"/>
<path d="M79.1035 76.4702C78.7749 75.959 78.4099 75.4477 78.0083 74.973C77.0957 73.8774 76.0371 72.9279 74.869 72.1245C73.4088 71.1385 71.6931 70.5177 69.9409 70.4446C68.6997 70.3716 67.4586 70.5907 66.2904 71.0289C65.1223 71.4306 63.9906 72.0149 62.8955 72.5992C61.6178 73.2566 60.3402 73.9139 58.9895 74.4617C57.3833 75.119 55.7041 75.6303 53.9884 75.9955C51.8347 76.3972 49.6444 76.5433 47.4906 76.5067C43.5847 76.4337 39.6787 75.8494 35.9552 74.7538C32.6698 73.7678 29.5305 72.4166 26.5736 70.7003C23.9818 69.203 21.5725 67.4866 19.3092 65.5511C17.4475 63.9443 15.7318 62.2279 14.1256 60.402C13.0305 59.1238 11.9718 57.7726 10.9862 56.3849C10.5847 55.8371 10.2196 55.2528 9.89107 54.6685L0.253906 44.2607V20.7061C0.253906 9.27576 9.48953 0 20.9154 0H39.3501L53.0028 13.8771C83.8125 34.8389 73.8468 57.9552 73.8468 57.9552C73.8468 57.9552 82.6079 67.8153 79.1035 76.4702V76.4702Z" fill="url(#paint1_linear_4678_2276)"/>
<path d="M53.0792 13.8774C83.8889 34.8392 73.9232 57.9555 73.9232 57.9555C73.9232 57.9555 82.6842 67.8521 79.1433 76.5071C79.1433 76.5071 75.5294 70.4449 69.4697 70.4449C63.629 70.4449 60.1975 76.5071 48.4431 76.5071C22.2695 76.5071 9.89453 54.6323 9.89453 54.6323C33.4763 70.1528 49.5748 59.1607 49.5748 59.1607C38.952 52.989 16.3558 23.4819 16.3558 23.4819C36.0317 40.244 44.5372 44.6627 44.5372 44.6627C39.4631 40.4631 25.2264 19.9395 25.2264 19.9395C36.6157 31.4795 59.2484 47.5842 59.2484 47.5842C65.6732 29.7631 53.0792 13.8774 53.0792 13.8774Z" fill="white"/>
<defs>
<linearGradient id="paint0_linear_4678_2276" x1="55.8509" y1="-3.33599" x2="38.1814" y2="96.8329" gradientUnits="userSpaceOnUse">
<stop stop-color="#FAAE42"/>
<stop offset="1" stop-color="#EF3E31"/>
</linearGradient>
<linearGradient id="paint1_linear_4678_2276" x1="47.9331" y1="1.51042" x2="35.001" y2="74.8226" gradientUnits="userSpaceOnUse">
<stop stop-color="#E39F3A"/>
<stop offset="1" stop-color="#D33929"/>
</linearGradient>
</defs>
</svg>
